<?xml version="1.0" encoding="iso-8859-1"?>
<!-- Uploaded to: SVG Repo, www.svgrepo.com, Generator: SVG Repo Mixer Tools -->
<svg height="800px" width="800px" version="1.1" id="Layer_1" xmlns="http://www.w3.org/2000/svg" xmlns:xlink="http://www.w3.org/1999/xlink" 
	 viewBox="0 0 499.813 499.813" xml:space="preserve">
<path style="fill:#82B23F;" d="M403.334,2.739c-17.88-8.776-108.512,1.248-173.888,63.936
	c-102.96,102.832-100.488,238.256-100.488,238.256s-3.392,13.944-17.904-6.272c-31.744-40.44-15.112-133.512-13.256-146.488
	c2.624-18.248-9.016-18.808-13.872-12.76c-114.68,159.24-11.104,289.648,56.728,331.04c79.392,48.44,236.04,48.424,298.448-89.024
	C516.79,210.251,425.726,13.723,403.334,2.739z"/>
<path style="fill:#B3E856;" d="M401.55,153.771c7.96-53.384,8.008-104.808,1.464-151.144c-18.48-8.544-108.52,1.664-173.568,64.048
	c-102.96,102.832-100.488,238.256-100.488,238.256s-3.392,13.944-17.904-6.272c-31.744-40.44-15.112-133.512-13.256-146.488
	c2.624-18.248-9.016-18.808-13.872-12.76c-69.312,96.24-58.856,181.904-24.8,243.8c34.088,36.6,72.88,60.656,108.808,66.016
	C270.334,464.507,374.91,332.227,401.55,153.771z"/>
<path style="fill:#98D13F;" d="M401.55,153.771c7.96-53.384,8.008-104.808,1.464-151.144c-18.48-8.544-90.2,21.136-155.256,83.536
	c-102.96,102.824-118.8,218.768-118.8,218.768s-3.392,13.944-17.904-6.272c-31.744-40.44-20.832-110.304-18.968-123.272
	c2.632-18.256-9.016-18.808-13.872-12.76C8.91,258.867,25.078,321.323,59.142,383.211c34.088,36.6,72.88,60.656,108.808,66.016
	C270.334,464.507,374.91,332.227,401.55,153.771z"/>
</svg>